<?xml version="1.0" encoding="utf-8" standalone="no"?>
<!DOCTYPE svg PUBLIC "-//W3C//DTD SVG 1.1//EN"
  "http://www.w3.org/Graphics/SVG/1.1/DTD/svg11.dtd">
<svg xmlns:xlink="http://www.w3.org/1999/xlink" width="705.6pt" height="360pt" viewBox="0 0 705.6 360" xmlns="http://www.w3.org/2000/svg" version="1.1">
 <metadata>
  <rdf:RDF xmlns:dc="http://purl.org/dc/elements/1.1/" xmlns:cc="http://creativecommons.org/ns#" xmlns:rdf="http://www.w3.org/1999/02/22-rdf-syntax-ns#">
   <cc:Work>
    <dc:type rdf:resource="http://purl.org/dc/dcmitype/StillImage"/>
    <dc:date>2026-07-19T17:44:54.792806</dc:date>
    <dc:format>image/svg+xml</dc:format>
    <dc:creator>
     <cc:Agent>
      <dc:title>Matplotlib v3.10.0, https://matplotlib.org/</dc:title>
     </cc:Agent>
    </dc:creator>
   </cc:Work>
  </rdf:RDF>
 </metadata>
 <defs>
  <style type="text/css">*{stroke-linejoin: round; stroke-linecap: butt}</style>
 </defs>
 <g id="figure_1">
  <g id="patch_1">
   <path d="M 0 360 
L 705.6 360 
L 705.6 0 
L 0 0 
z
" style="fill: #ffffff"/>
  </g>
  <g id="axes_1">
   <g id="patch_2">
    <path d="M 47.72 217.356585 
L 691.786079 217.356585 
L 691.786079 26.88 
L 47.72 26.88 
z
" style="fill: #ffffff"/>
   </g>
   <g id="patch_3">
    <path d="M 76.995731 217.356585 
L 110.938607 217.356585 
L 110.938607 45.11133 
L 76.995731 45.11133 
z
" clip-path="url(#pd435c3c89a)" style="fill: #5b8ff9"/>
   </g>
   <g id="patch_4">
    <path d="M 119.424326 217.356585 
L 153.367203 217.356585 
L 153.367203 50.976739 
L 119.424326 50.976739 
z
" clip-path="url(#pd435c3c89a)" style="fill: #5b8ff9"/>
   </g>
   <g id="patch_5">
    <path d="M 161.852922 217.356585 
L 195.795798 217.356585 
L 195.795798 37.310861 
L 161.852922 37.310861 
z
" clip-path="url(#pd435c3c89a)" style="fill: #5b8ff9"/>
   </g>
   <g id="patch_6">
    <path d="M 204.281517 217.356585 
L 238.224394 217.356585 
L 238.224394 35.950314 
L 204.281517 35.950314 
z
" clip-path="url(#pd435c3c89a)" style="fill: #5b8ff9"/>
   </g>
   <g id="patch_7">
    <path d="M 246.710113 217.356585 
L 280.652989 217.356585 
L 280.652989 35.950314 
L 246.710113 35.950314 
z
" clip-path="url(#pd435c3c89a)" style="fill: #5b8ff9"/>
   </g>
   <g id="patch_8">
    <path d="M 289.138708 217.356585 
L 323.081585 217.356585 
L 323.081585 155.043531 
L 289.138708 155.043531 
z
" clip-path="url(#pd435c3c89a)" style="fill: #5b8ff9"/>
   </g>
   <g id="patch_9">
    <path d="M 331.567304 217.356585 
L 365.51018 217.356585 
L 365.51018 212.398153 
L 331.567304 212.398153 
z
" clip-path="url(#pd435c3c89a)" style="fill: #5b8ff9"/>
   </g>
   <g id="patch_10">
    <path d="M 373.995899 217.356585 
L 407.938776 217.356585 
L 407.938776 82.511317 
L 373.995899 82.511317 
z
" clip-path="url(#pd435c3c89a)" style="fill: #f6bd16"/>
   </g>
   <g id="patch_11">
    <path d="M 416.424495 217.356585 
L 450.367371 217.356585 
L 450.367371 122.148588 
L 416.424495 122.148588 
z
" clip-path="url(#pd435c3c89a)" style="fill: #f6bd16"/>
   </g>
   <g id="patch_12">
    <path d="M 458.85309 217.356585 
L 492.795966 217.356585 
L 492.795966 37.220157 
L 458.85309 37.220157 
z
" clip-path="url(#pd435c3c89a)" style="fill: #f6bd16"/>
   </g>
   <g id="patch_13">
    <path d="M 501.281686 217.356585 
L 535.224562 217.356585 
L 535.224562 35.950314 
L 501.281686 35.950314 
z
" clip-path="url(#pd435c3c89a)" style="fill: #f6bd16"/>
   </g>
   <g id="patch_14">
    <path d="M 543.710281 217.356585 
L 577.653157 217.356585 
L 577.653157 35.950314 
L 543.710281 35.950314 
z
" clip-path="url(#pd435c3c89a)" style="fill: #f6bd16"/>
   </g>
   <g id="patch_15">
    <path d="M 586.138876 217.356585 
L 620.081753 217.356585 
L 620.081753 215.421579 
L 586.138876 215.421579 
z
" clip-path="url(#pd435c3c89a)" style="fill: #f6bd16"/>
   </g>
   <g id="patch_16">
    <path d="M 628.567472 217.356585 
L 662.510348 217.356585 
L 662.510348 217.144944 
L 628.567472 217.144944 
z
" clip-path="url(#pd435c3c89a)" style="fill: #f6bd16"/>
   </g>
   <g id="matplotlib.axis_1">
    <g id="xtick_1">
     <g id="line2d_1">
      <defs>
       <path id="m1ada43783d" d="M 0 0 
L 0 3.5 
" style="stroke: #000000; stroke-width: 0.8"/>
      </defs>
      <g>
       <use xlink:href="#m1ada43783d" x="93.967169" y="217.356585" style="stroke: #000000; stroke-width: 0.8"/>
      </g>
     </g>
     <g id="text_1">
      <!-- jax -->
      <g transform="translate(86.619556 280.111955) rotate(-45) scale(0.1 -0.1)">
       <defs>
        <path id="DejaVuSans-6a" d="M 603 3500 
L 1178 3500 
L 1178 -63 
Q 1178 -731 923 -1031 
Q 669 -1331 103 -1331 
L -116 -1331 
L -116 -844 
L 38 -844 
Q 366 -844 484 -692 
Q 603 -541 603 -63 
L 603 3500 
z
M 603 4863 
L 1178 4863 
L 1178 4134 
L 603 4134 
L 603 4863 
z
" transform="scale(0.015625)"/>
        <path id="DejaVuSans-61" d="M 2194 1759 
Q 1497 1759 1228 1600 
Q 959 1441 959 1056 
Q 959 750 1161 570 
Q 1363 391 1709 391 
Q 2188 391 2477 730 
Q 2766 1069 2766 1631 
L 2766 1759 
L 2194 1759 
z
M 3341 1997 
L 3341 0 
L 2766 0 
L 2766 531 
Q 2569 213 2275 61 
Q 1981 -91 1556 -91 
Q 1019 -91 701 211 
Q 384 513 384 1019 
Q 384 1609 779 1909 
Q 1175 2209 1959 2209 
L 2766 2209 
L 2766 2266 
Q 2766 2663 2505 2880 
Q 2244 3097 1772 3097 
Q 1472 3097 1187 3025 
Q 903 2953 641 2809 
L 641 3341 
Q 956 3463 1253 3523 
Q 1550 3584 1831 3584 
Q 2591 3584 2966 3190 
Q 3341 2797 3341 1997 
z
" transform="scale(0.015625)"/>
        <path id="DejaVuSans-78" d="M 3513 3500 
L 2247 1797 
L 3578 0 
L 2900 0 
L 1881 1375 
L 863 0 
L 184 0 
L 1544 1831 
L 300 3500 
L 978 3500 
L 1906 2253 
L 2834 3500 
L 3513 3500 
z
" transform="scale(0.015625)"/>
       </defs>
       <use xlink:href="#DejaVuSans-6a"/>
       <use xlink:href="#DejaVuSans-61" transform="translate(27.783203 0)"/>
       <use xlink:href="#DejaVuSans-78" transform="translate(89.0625 0)"/>
      </g>
      <!-- colab_answer_only_5digit -->
      <g transform="translate(54.638 327.929609) rotate(-45) scale(0.1 -0.1)">
       <defs>
        <path id="DejaVuSans-63" d="M 3122 3366 
L 3122 2828 
Q 2878 2963 2633 3030 
Q 2388 3097 2138 3097 
Q 1578 3097 1268 2742 
Q 959 2388 959 1747 
Q 959 1106 1268 751 
Q 1578 397 2138 397 
Q 2388 397 2633 464 
Q 2878 531 3122 666 
L 3122 134 
Q 2881 22 2623 -34 
Q 2366 -91 2075 -91 
Q 1284 -91 818 406 
Q 353 903 353 1747 
Q 353 2603 823 3093 
Q 1294 3584 2113 3584 
Q 2378 3584 2631 3529 
Q 2884 3475 3122 3366 
z
" transform="scale(0.015625)"/>
        <path id="DejaVuSans-6f" d="M 1959 3097 
Q 1497 3097 1228 2736 
Q 959 2375 959 1747 
Q 959 1119 1226 758 
Q 1494 397 1959 397 
Q 2419 397 2687 759 
Q 2956 1122 2956 1747 
Q 2956 2369 2687 2733 
Q 2419 3097 1959 3097 
z
M 1959 3584 
Q 2709 3584 3137 3096 
Q 3566 2609 3566 1747 
Q 3566 888 3137 398 
Q 2709 -91 1959 -91 
Q 1206 -91 779 398 
Q 353 888 353 1747 
Q 353 2609 779 3096 
Q 1206 3584 1959 3584 
z
" transform="scale(0.015625)"/>
        <path id="DejaVuSans-6c" d="M 603 4863 
L 1178 4863 
L 1178 0 
L 603 0 
L 603 4863 
z
" transform="scale(0.015625)"/>
        <path id="DejaVuSans-62" d="M 3116 1747 
Q 3116 2381 2855 2742 
Q 2594 3103 2138 3103 
Q 1681 3103 1420 2742 
Q 1159 2381 1159 1747 
Q 1159 1113 1420 752 
Q 1681 391 2138 391 
Q 2594 391 2855 752 
Q 3116 1113 3116 1747 
z
M 1159 2969 
Q 1341 3281 1617 3432 
Q 1894 3584 2278 3584 
Q 2916 3584 3314 3078 
Q 3713 2572 3713 1747 
Q 3713 922 3314 415 
Q 2916 -91 2278 -91 
Q 1894 -91 1617 61 
Q 1341 213 1159 525 
L 1159 0 
L 581 0 
L 581 4863 
L 1159 4863 
L 1159 2969 
z
" transform="scale(0.015625)"/>
        <path id="DejaVuSans-5f" d="M 3263 -1063 
L 3263 -1509 
L -63 -1509 
L -63 -1063 
L 3263 -1063 
z
" transform="scale(0.015625)"/>
        <path id="DejaVuSans-6e" d="M 3513 2113 
L 3513 0 
L 2938 0 
L 2938 2094 
Q 2938 2591 2744 2837 
Q 2550 3084 2163 3084 
Q 1697 3084 1428 2787 
Q 1159 2491 1159 1978 
L 1159 0 
L 581 0 
L 581 3500 
L 1159 3500 
L 1159 2956 
Q 1366 3272 1645 3428 
Q 1925 3584 2291 3584 
Q 2894 3584 3203 3211 
Q 3513 2838 3513 2113 
z
" transform="scale(0.015625)"/>
        <path id="DejaVuSans-73" d="M 2834 3397 
L 2834 2853 
Q 2591 2978 2328 3040 
Q 2066 3103 1784 3103 
Q 1356 3103 1142 2972 
Q 928 2841 928 2578 
Q 928 2378 1081 2264 
Q 1234 2150 1697 2047 
L 1894 2003 
Q 2506 1872 2764 1633 
Q 3022 1394 3022 966 
Q 3022 478 2636 193 
Q 2250 -91 1575 -91 
Q 1294 -91 989 -36 
Q 684 19 347 128 
L 347 722 
Q 666 556 975 473 
Q 1284 391 1588 391 
Q 1994 391 2212 530 
Q 2431 669 2431 922 
Q 2431 1156 2273 1281 
Q 2116 1406 1581 1522 
L 1381 1569 
Q 847 1681 609 1914 
Q 372 2147 372 2553 
Q 372 3047 722 3315 
Q 1072 3584 1716 3584 
Q 2034 3584 2315 3537 
Q 2597 3491 2834 3397 
z
" transform="scale(0.015625)"/>
        <path id="DejaVuSans-77" d="M 269 3500 
L 844 3500 
L 1563 769 
L 2278 3500 
L 2956 3500 
L 3675 769 
L 4391 3500 
L 4966 3500 
L 4050 0 
L 3372 0 
L 2619 2869 
L 1863 0 
L 1184 0 
L 269 3500 
z
" transform="scale(0.015625)"/>
        <path id="DejaVuSans-65" d="M 3597 1894 
L 3597 1613 
L 953 1613 
Q 991 1019 1311 708 
Q 1631 397 2203 397 
Q 2534 397 2845 478 
Q 3156 559 3463 722 
L 3463 178 
Q 3153 47 2828 -22 
Q 2503 -91 2169 -91 
Q 1331 -91 842 396 
Q 353 884 353 1716 
Q 353 2575 817 3079 
Q 1281 3584 2069 3584 
Q 2775 3584 3186 3129 
Q 3597 2675 3597 1894 
z
M 3022 2063 
Q 3016 2534 2758 2815 
Q 2500 3097 2075 3097 
Q 1594 3097 1305 2825 
Q 1016 2553 972 2059 
L 3022 2063 
z
" transform="scale(0.015625)"/>
        <path id="DejaVuSans-72" d="M 2631 2963 
Q 2534 3019 2420 3045 
Q 2306 3072 2169 3072 
Q 1681 3072 1420 2755 
Q 1159 2438 1159 1844 
L 1159 0 
L 581 0 
L 581 3500 
L 1159 3500 
L 1159 2956 
Q 1341 3275 1631 3429 
Q 1922 3584 2338 3584 
Q 2397 3584 2469 3576 
Q 2541 3569 2628 3553 
L 2631 2963 
z
" transform="scale(0.015625)"/>
        <path id="DejaVuSans-79" d="M 2059 -325 
Q 1816 -950 1584 -1140 
Q 1353 -1331 966 -1331 
L 506 -1331 
L 506 -850 
L 844 -850 
Q 1081 -850 1212 -737 
Q 1344 -625 1503 -206 
L 1606 56 
L 191 3500 
L 800 3500 
L 1894 763 
L 2988 3500 
L 3597 3500 
L 2059 -325 
z
" transform="scale(0.015625)"/>
        <path id="DejaVuSans-35" d="M 691 4666 
L 3169 4666 
L 3169 4134 
L 1269 4134 
L 1269 2991 
Q 1406 3038 1543 3061 
Q 1681 3084 1819 3084 
Q 2600 3084 3056 2656 
Q 3513 2228 3513 1497 
Q 3513 744 3044 326 
Q 2575 -91 1722 -91 
Q 1428 -91 1123 -41 
Q 819 9 494 109 
L 494 744 
Q 775 591 1075 516 
Q 1375 441 1709 441 
Q 2250 441 2565 725 
Q 2881 1009 2881 1497 
Q 2881 1984 2565 2268 
Q 2250 2553 1709 2553 
Q 1456 2553 1204 2497 
Q 953 2441 691 2322 
L 691 4666 
z
" transform="scale(0.015625)"/>
        <path id="DejaVuSans-64" d="M 2906 2969 
L 2906 4863 
L 3481 4863 
L 3481 0 
L 2906 0 
L 2906 525 
Q 2725 213 2448 61 
Q 2172 -91 1784 -91 
Q 1150 -91 751 415 
Q 353 922 353 1747 
Q 353 2572 751 3078 
Q 1150 3584 1784 3584 
Q 2172 3584 2448 3432 
Q 2725 3281 2906 2969 
z
M 947 1747 
Q 947 1113 1208 752 
Q 1469 391 1925 391 
Q 2381 391 2643 752 
Q 2906 1113 2906 1747 
Q 2906 2381 2643 2742 
Q 2381 3103 1925 3103 
Q 1469 3103 1208 2742 
Q 947 2381 947 1747 
z
" transform="scale(0.015625)"/>
        <path id="DejaVuSans-69" d="M 603 3500 
L 1178 3500 
L 1178 0 
L 603 0 
L 603 3500 
z
M 603 4863 
L 1178 4863 
L 1178 4134 
L 603 4134 
L 603 4863 
z
" transform="scale(0.015625)"/>
        <path id="DejaVuSans-67" d="M 2906 1791 
Q 2906 2416 2648 2759 
Q 2391 3103 1925 3103 
Q 1463 3103 1205 2759 
Q 947 2416 947 1791 
Q 947 1169 1205 825 
Q 1463 481 1925 481 
Q 2391 481 2648 825 
Q 2906 1169 2906 1791 
z
M 3481 434 
Q 3481 -459 3084 -895 
Q 2688 -1331 1869 -1331 
Q 1566 -1331 1297 -1286 
Q 1028 -1241 775 -1147 
L 775 -588 
Q 1028 -725 1275 -790 
Q 1522 -856 1778 -856 
Q 2344 -856 2625 -561 
Q 2906 -266 2906 331 
L 2906 616 
Q 2728 306 2450 153 
Q 2172 0 1784 0 
Q 1141 0 747 490 
Q 353 981 353 1791 
Q 353 2603 747 3093 
Q 1141 3584 1784 3584 
Q 2172 3584 2450 3431 
Q 2728 3278 2906 2969 
L 2906 3500 
L 3481 3500 
L 3481 434 
z
" transform="scale(0.015625)"/>
        <path id="DejaVuSans-74" d="M 1172 4494 
L 1172 3500 
L 2356 3500 
L 2356 3053 
L 1172 3053 
L 1172 1153 
Q 1172 725 1289 603 
Q 1406 481 1766 481 
L 2356 481 
L 2356 0 
L 1766 0 
Q 1100 0 847 248 
Q 594 497 594 1153 
L 594 3053 
L 172 3053 
L 172 3500 
L 594 3500 
L 594 4494 
L 1172 4494 
z
" transform="scale(0.015625)"/>
       </defs>
       <use xlink:href="#DejaVuSans-63"/>
       <use xlink:href="#DejaVuSans-6f" transform="translate(54.980469 0)"/>
       <use xlink:href="#DejaVuSans-6c" transform="translate(116.162109 0)"/>
       <use xlink:href="#DejaVuSans-61" transform="translate(143.945312 0)"/>
       <use xlink:href="#DejaVuSans-62" transform="translate(205.224609 0)"/>
       <use xlink:href="#DejaVuSans-5f" transform="translate(268.701172 0)"/>
       <use xlink:href="#DejaVuSans-61" transform="translate(318.701172 0)"/>
       <use xlink:href="#DejaVuSans-6e" transform="translate(379.980469 0)"/>
       <use xlink:href="#DejaVuSans-73" transform="translate(443.359375 0)"/>
       <use xlink:href="#DejaVuSans-77" transform="translate(495.458984 0)"/>
       <use xlink:href="#DejaVuSans-65" transform="translate(577.246094 0)"/>
       <use xlink:href="#DejaVuSans-72" transform="translate(638.769531 0)"/>
       <use xlink:href="#DejaVuSans-5f" transform="translate(679.882812 0)"/>
       <use xlink:href="#DejaVuSans-6f" transform="translate(729.882812 0)"/>
       <use xlink:href="#DejaVuSans-6e" transform="translate(791.064453 0)"/>
       <use xlink:href="#DejaVuSans-6c" transform="translate(854.443359 0)"/>
       <use xlink:href="#DejaVuSans-79" transform="translate(882.226562 0)"/>
       <use xlink:href="#DejaVuSans-5f" transform="translate(941.40625 0)"/>
       <use xlink:href="#DejaVuSans-35" transform="translate(991.40625 0)"/>
       <use xlink:href="#DejaVuSans-64" transform="translate(1055.029297 0)"/>
       <use xlink:href="#DejaVuSans-69" transform="translate(1118.505859 0)"/>
       <use xlink:href="#DejaVuSans-67" transform="translate(1146.289062 0)"/>
       <use xlink:href="#DejaVuSans-69" transform="translate(1209.765625 0)"/>
       <use xlink:href="#DejaVuSans-74" transform="translate(1237.548828 0)"/>
      </g>
     </g>
    </g>
    <g id="xtick_2">
     <g id="line2d_2">
      <g>
       <use xlink:href="#m1ada43783d" x="136.395765" y="217.356585" style="stroke: #000000; stroke-width: 0.8"/>
      </g>
     </g>
     <g id="text_2">
      <!-- jax -->
      <g transform="translate(129.048152 280.111955) rotate(-45) scale(0.1 -0.1)">
       <use xlink:href="#DejaVuSans-6a"/>
       <use xlink:href="#DejaVuSans-61" transform="translate(27.783203 0)"/>
       <use xlink:href="#DejaVuSans-78" transform="translate(89.0625 0)"/>
      </g>
      <!-- colab_answer_only_6digit -->
      <g transform="translate(97.066596 327.929609) rotate(-45) scale(0.1 -0.1)">
       <defs>
        <path id="DejaVuSans-36" d="M 2113 2584 
Q 1688 2584 1439 2293 
Q 1191 2003 1191 1497 
Q 1191 994 1439 701 
Q 1688 409 2113 409 
Q 2538 409 2786 701 
Q 3034 994 3034 1497 
Q 3034 2003 2786 2293 
Q 2538 2584 2113 2584 
z
M 3366 4563 
L 3366 3988 
Q 3128 4100 2886 4159 
Q 2644 4219 2406 4219 
Q 1781 4219 1451 3797 
Q 1122 3375 1075 2522 
Q 1259 2794 1537 2939 
Q 1816 3084 2150 3084 
Q 2853 3084 3261 2657 
Q 3669 2231 3669 1497 
Q 3669 778 3244 343 
Q 2819 -91 2113 -91 
Q 1303 -91 875 529 
Q 447 1150 447 2328 
Q 447 3434 972 4092 
Q 1497 4750 2381 4750 
Q 2619 4750 2861 4703 
Q 3103 4656 3366 4563 
z
" transform="scale(0.015625)"/>
       </defs>
       <use xlink:href="#DejaVuSans-63"/>
       <use xlink:href="#DejaVuSans-6f" transform="translate(54.980469 0)"/>
       <use xlink:href="#DejaVuSans-6c" transform="translate(116.162109 0)"/>
       <use xlink:href="#DejaVuSans-61" transform="translate(143.945312 0)"/>
       <use xlink:href="#DejaVuSans-62" transform="translate(205.224609 0)"/>
       <use xlink:href="#DejaVuSans-5f" transform="translate(268.701172 0)"/>
       <use xlink:href="#DejaVuSans-61" transform="translate(318.701172 0)"/>
       <use xlink:href="#DejaVuSans-6e" transform="translate(379.980469 0)"/>
       <use xlink:href="#DejaVuSans-73" transform="translate(443.359375 0)"/>
       <use xlink:href="#DejaVuSans-77" transform="translate(495.458984 0)"/>
       <use xlink:href="#DejaVuSans-65" transform="translate(577.246094 0)"/>
       <use xlink:href="#DejaVuSans-72" transform="translate(638.769531 0)"/>
       <use xlink:href="#DejaVuSans-5f" transform="translate(679.882812 0)"/>
       <use xlink:href="#DejaVuSans-6f" transform="translate(729.882812 0)"/>
       <use xlink:href="#DejaVuSans-6e" transform="translate(791.064453 0)"/>
       <use xlink:href="#DejaVuSans-6c" transform="translate(854.443359 0)"/>
       <use xlink:href="#DejaVuSans-79" transform="translate(882.226562 0)"/>
       <use xlink:href="#DejaVuSans-5f" transform="translate(941.40625 0)"/>
       <use xlink:href="#DejaVuSans-36" transform="translate(991.40625 0)"/>
       <use xlink:href="#DejaVuSans-64" transform="translate(1055.029297 0)"/>
       <use xlink:href="#DejaVuSans-69" transform="translate(1118.505859 0)"/>
       <use xlink:href="#DejaVuSans-67" transform="translate(1146.289062 0)"/>
       <use xlink:href="#DejaVuSans-69" transform="translate(1209.765625 0)"/>
       <use xlink:href="#DejaVuSans-74" transform="translate(1237.548828 0)"/>
      </g>
     </g>
    </g>
    <g id="xtick_3">
     <g id="line2d_3">
      <g>
       <use xlink:href="#m1ada43783d" x="178.82436" y="217.356585" style="stroke: #000000; stroke-width: 0.8"/>
      </g>
     </g>
     <g id="text_3">
      <!-- jax -->
      <g transform="translate(171.476747 289.510399) rotate(-45) scale(0.1 -0.1)">
       <use xlink:href="#DejaVuSans-6a"/>
       <use xlink:href="#DejaVuSans-61" transform="translate(27.783203 0)"/>
       <use xlink:href="#DejaVuSans-78" transform="translate(89.0625 0)"/>
      </g>
      <!-- colab_answer_only_6digit_long -->
      <g transform="translate(130.096748 346.726496) rotate(-45) scale(0.1 -0.1)">
       <use xlink:href="#DejaVuSans-63"/>
       <use xlink:href="#DejaVuSans-6f" transform="translate(54.980469 0)"/>
       <use xlink:href="#DejaVuSans-6c" transform="translate(116.162109 0)"/>
       <use xlink:href="#DejaVuSans-61" transform="translate(143.945312 0)"/>
       <use xlink:href="#DejaVuSans-62" transform="translate(205.224609 0)"/>
       <use xlink:href="#DejaVuSans-5f" transform="translate(268.701172 0)"/>
       <use xlink:href="#DejaVuSans-61" transform="translate(318.701172 0)"/>
       <use xlink:href="#DejaVuSans-6e" transform="translate(379.980469 0)"/>
       <use xlink:href="#DejaVuSans-73" transform="translate(443.359375 0)"/>
       <use xlink:href="#DejaVuSans-77" transform="translate(495.458984 0)"/>
       <use xlink:href="#DejaVuSans-65" transform="translate(577.246094 0)"/>
       <use xlink:href="#DejaVuSans-72" transform="translate(638.769531 0)"/>
       <use xlink:href="#DejaVuSans-5f" transform="translate(679.882812 0)"/>
       <use xlink:href="#DejaVuSans-6f" transform="translate(729.882812 0)"/>
       <use xlink:href="#DejaVuSans-6e" transform="translate(791.064453 0)"/>
       <use xlink:href="#DejaVuSans-6c" transform="translate(854.443359 0)"/>
       <use xlink:href="#DejaVuSans-79" transform="translate(882.226562 0)"/>
       <use xlink:href="#DejaVuSans-5f" transform="translate(941.40625 0)"/>
       <use xlink:href="#DejaVuSans-36" transform="translate(991.40625 0)"/>
       <use xlink:href="#DejaVuSans-64" transform="translate(1055.029297 0)"/>
       <use xlink:href="#DejaVuSans-69" transform="translate(1118.505859 0)"/>
       <use xlink:href="#DejaVuSans-67" transform="translate(1146.289062 0)"/>
       <use xlink:href="#DejaVuSans-69" transform="translate(1209.765625 0)"/>
       <use xlink:href="#DejaVuSans-74" transform="translate(1237.548828 0)"/>
       <use xlink:href="#DejaVuSans-5f" transform="translate(1276.757812 0)"/>
       <use xlink:href="#DejaVuSans-6c" transform="translate(1326.757812 0)"/>
       <use xlink:href="#DejaVuSans-6f" transform="translate(1354.541016 0)"/>
       <use xlink:href="#DejaVuSans-6e" transform="translate(1415.722656 0)"/>
       <use xlink:href="#DejaVuSans-67" transform="translate(1479.101562 0)"/>
      </g>
     </g>
    </g>
    <g id="xtick_4">
     <g id="line2d_4">
      <g>
       <use xlink:href="#m1ada43783d" x="221.252955" y="217.356585" style="stroke: #000000; stroke-width: 0.8"/>
      </g>
     </g>
     <g id="text_4">
      <!-- jax -->
      <g transform="translate(213.905343 288.165791) rotate(-45) scale(0.1 -0.1)">
       <use xlink:href="#DejaVuSans-6a"/>
       <use xlink:href="#DejaVuSans-61" transform="translate(27.783203 0)"/>
       <use xlink:href="#DejaVuSans-78" transform="translate(89.0625 0)"/>
      </g>
      <!-- colab_reversed_answer_5digit -->
      <g transform="translate(173.869951 344.037281) rotate(-45) scale(0.1 -0.1)">
       <defs>
        <path id="DejaVuSans-76" d="M 191 3500 
L 800 3500 
L 1894 563 
L 2988 3500 
L 3597 3500 
L 2284 0 
L 1503 0 
L 191 3500 
z
" transform="scale(0.015625)"/>
       </defs>
       <use xlink:href="#DejaVuSans-63"/>
       <use xlink:href="#DejaVuSans-6f" transform="translate(54.980469 0)"/>
       <use xlink:href="#DejaVuSans-6c" transform="translate(116.162109 0)"/>
       <use xlink:href="#DejaVuSans-61" transform="translate(143.945312 0)"/>
       <use xlink:href="#DejaVuSans-62" transform="translate(205.224609 0)"/>
       <use xlink:href="#DejaVuSans-5f" transform="translate(268.701172 0)"/>
       <use xlink:href="#DejaVuSans-72" transform="translate(318.701172 0)"/>
       <use xlink:href="#DejaVuSans-65" transform="translate(357.564453 0)"/>
       <use xlink:href="#DejaVuSans-76" transform="translate(419.087891 0)"/>
       <use xlink:href="#DejaVuSans-65" transform="translate(478.267578 0)"/>
       <use xlink:href="#DejaVuSans-72" transform="translate(539.791016 0)"/>
       <use xlink:href="#DejaVuSans-73" transform="translate(580.904297 0)"/>
       <use xlink:href="#DejaVuSans-65" transform="translate(633.003906 0)"/>
       <use xlink:href="#DejaVuSans-64" transform="translate(694.527344 0)"/>
       <use xlink:href="#DejaVuSans-5f" transform="translate(758.003906 0)"/>
       <use xlink:href="#DejaVuSans-61" transform="translate(808.003906 0)"/>
       <use xlink:href="#DejaVuSans-6e" transform="translate(869.283203 0)"/>
       <use xlink:href="#DejaVuSans-73" transform="translate(932.662109 0)"/>
       <use xlink:href="#DejaVuSans-77" transform="translate(984.761719 0)"/>
       <use xlink:href="#DejaVuSans-65" transform="translate(1066.548828 0)"/>
       <use xlink:href="#DejaVuSans-72" transform="translate(1128.072266 0)"/>
       <use xlink:href="#DejaVuSans-5f" transform="translate(1169.185547 0)"/>
       <use xlink:href="#DejaVuSans-35" transform="translate(1219.185547 0)"/>
       <use xlink:href="#DejaVuSans-64" transform="translate(1282.808594 0)"/>
       <use xlink:href="#DejaVuSans-69" transform="translate(1346.285156 0)"/>
       <use xlink:href="#DejaVuSans-67" transform="translate(1374.068359 0)"/>
       <use xlink:href="#DejaVuSans-69" transform="translate(1437.544922 0)"/>
       <use xlink:href="#DejaVuSans-74" transform="translate(1465.328125 0)"/>
      </g>
     </g>
    </g>
    <g id="xtick_5">
     <g id="line2d_5">
      <g>
       <use xlink:href="#m1ada43783d" x="263.681551" y="217.356585" style="stroke: #000000; stroke-width: 0.8"/>
      </g>
     </g>
     <g id="text_5">
      <!-- jax -->
      <g transform="translate(256.333938 288.165791) rotate(-45) scale(0.1 -0.1)">
       <use xlink:href="#DejaVuSans-6a"/>
       <use xlink:href="#DejaVuSans-61" transform="translate(27.783203 0)"/>
       <use xlink:href="#DejaVuSans-78" transform="translate(89.0625 0)"/>
      </g>
      <!-- colab_reversed_answer_6digit -->
      <g transform="translate(216.298546 344.037281) rotate(-45) scale(0.1 -0.1)">
       <use xlink:href="#DejaVuSans-63"/>
       <use xlink:href="#DejaVuSans-6f" transform="translate(54.980469 0)"/>
       <use xlink:href="#DejaVuSans-6c" transform="translate(116.162109 0)"/>
       <use xlink:href="#DejaVuSans-61" transform="translate(143.945312 0)"/>
       <use xlink:href="#DejaVuSans-62" transform="translate(205.224609 0)"/>
       <use xlink:href="#DejaVuSans-5f" transform="translate(268.701172 0)"/>
       <use xlink:href="#DejaVuSans-72" transform="translate(318.701172 0)"/>
       <use xlink:href="#DejaVuSans-65" transform="translate(357.564453 0)"/>
       <use xlink:href="#DejaVuSans-76" transform="translate(419.087891 0)"/>
       <use xlink:href="#DejaVuSans-65" transform="translate(478.267578 0)"/>
       <use xlink:href="#DejaVuSans-72" transform="translate(539.791016 0)"/>
       <use xlink:href="#DejaVuSans-73" transform="translate(580.904297 0)"/>
       <use xlink:href="#DejaVuSans-65" transform="translate(633.003906 0)"/>
       <use xlink:href="#DejaVuSans-64" transform="translate(694.527344 0)"/>
       <use xlink:href="#DejaVuSans-5f" transform="translate(758.003906 0)"/>
       <use xlink:href="#DejaVuSans-61" transform="translate(808.003906 0)"/>
       <use xlink:href="#DejaVuSans-6e" transform="translate(869.283203 0)"/>
       <use xlink:href="#DejaVuSans-73" transform="translate(932.662109 0)"/>
       <use xlink:href="#DejaVuSans-77" transform="translate(984.761719 0)"/>
       <use xlink:href="#DejaVuSans-65" transform="translate(1066.548828 0)"/>
       <use xlink:href="#DejaVuSans-72" transform="translate(1128.072266 0)"/>
       <use xlink:href="#DejaVuSans-5f" transform="translate(1169.185547 0)"/>
       <use xlink:href="#DejaVuSans-36" transform="translate(1219.185547 0)"/>
       <use xlink:href="#DejaVuSans-64" transform="translate(1282.808594 0)"/>
       <use xlink:href="#DejaVuSans-69" transform="translate(1346.285156 0)"/>
       <use xlink:href="#DejaVuSans-67" transform="translate(1374.068359 0)"/>
       <use xlink:href="#DejaVuSans-69" transform="translate(1437.544922 0)"/>
       <use xlink:href="#DejaVuSans-74" transform="translate(1465.328125 0)"/>
      </g>
     </g>
    </g>
    <g id="xtick_6">
     <g id="line2d_6">
      <g>
       <use xlink:href="#m1ada43783d" x="306.110146" y="217.356585" style="stroke: #000000; stroke-width: 0.8"/>
      </g>
     </g>
     <g id="text_6">
      <!-- jax -->
      <g transform="translate(298.762534 269.424699) rotate(-45) scale(0.1 -0.1)">
       <use xlink:href="#DejaVuSans-6a"/>
       <use xlink:href="#DejaVuSans-61" transform="translate(27.783203 0)"/>
       <use xlink:href="#DejaVuSans-78" transform="translate(89.0625 0)"/>
      </g>
      <!-- colab_sweep_5digit -->
      <g transform="translate(277.468234 306.555097) rotate(-45) scale(0.1 -0.1)">
       <defs>
        <path id="DejaVuSans-70" d="M 1159 525 
L 1159 -1331 
L 581 -1331 
L 581 3500 
L 1159 3500 
L 1159 2969 
Q 1341 3281 1617 3432 
Q 1894 3584 2278 3584 
Q 2916 3584 3314 3078 
Q 3713 2572 3713 1747 
Q 3713 922 3314 415 
Q 2916 -91 2278 -91 
Q 1894 -91 1617 61 
Q 1341 213 1159 525 
z
M 3116 1747 
Q 3116 2381 2855 2742 
Q 2594 3103 2138 3103 
Q 1681 3103 1420 2742 
Q 1159 2381 1159 1747 
Q 1159 1113 1420 752 
Q 1681 391 2138 391 
Q 2594 391 2855 752 
Q 3116 1113 3116 1747 
z
" transform="scale(0.015625)"/>
       </defs>
       <use xlink:href="#DejaVuSans-63"/>
       <use xlink:href="#DejaVuSans-6f" transform="translate(54.980469 0)"/>
       <use xlink:href="#DejaVuSans-6c" transform="translate(116.162109 0)"/>
       <use xlink:href="#DejaVuSans-61" transform="translate(143.945312 0)"/>
       <use xlink:href="#DejaVuSans-62" transform="translate(205.224609 0)"/>
       <use xlink:href="#DejaVuSans-5f" transform="translate(268.701172 0)"/>
       <use xlink:href="#DejaVuSans-73" transform="translate(318.701172 0)"/>
       <use xlink:href="#DejaVuSans-77" transform="translate(370.800781 0)"/>
       <use xlink:href="#DejaVuSans-65" transform="translate(452.587891 0)"/>
       <use xlink:href="#DejaVuSans-65" transform="translate(514.111328 0)"/>
       <use xlink:href="#DejaVuSans-70" transform="translate(575.634766 0)"/>
       <use xlink:href="#DejaVuSans-5f" transform="translate(639.111328 0)"/>
       <use xlink:href="#DejaVuSans-35" transform="translate(689.111328 0)"/>
       <use xlink:href="#DejaVuSans-64" transform="translate(752.734375 0)"/>
       <use xlink:href="#DejaVuSans-69" transform="translate(816.210938 0)"/>
       <use xlink:href="#DejaVuSans-67" transform="translate(843.994141 0)"/>
       <use xlink:href="#DejaVuSans-69" transform="translate(907.470703 0)"/>
       <use xlink:href="#DejaVuSans-74" transform="translate(935.253906 0)"/>
      </g>
     </g>
    </g>
    <g id="xtick_7">
     <g id="line2d_7">
      <g>
       <use xlink:href="#m1ada43783d" x="348.538742" y="217.356585" style="stroke: #000000; stroke-width: 0.8"/>
      </g>
     </g>
     <g id="text_7">
      <!-- jax -->
      <g transform="translate(341.191129 269.424699) rotate(-45) scale(0.1 -0.1)">
       <use xlink:href="#DejaVuSans-6a"/>
       <use xlink:href="#DejaVuSans-61" transform="translate(27.783203 0)"/>
       <use xlink:href="#DejaVuSans-78" transform="translate(89.0625 0)"/>
      </g>
      <!-- colab_sweep_6digit -->
      <g transform="translate(319.896829 306.555097) rotate(-45) scale(0.1 -0.1)">
       <use xlink:href="#DejaVuSans-63"/>
       <use xlink:href="#DejaVuSans-6f" transform="translate(54.980469 0)"/>
       <use xlink:href="#DejaVuSans-6c" transform="translate(116.162109 0)"/>
       <use xlink:href="#DejaVuSans-61" transform="translate(143.945312 0)"/>
       <use xlink:href="#DejaVuSans-62" transform="translate(205.224609 0)"/>
       <use xlink:href="#DejaVuSans-5f" transform="translate(268.701172 0)"/>
       <use xlink:href="#DejaVuSans-73" transform="translate(318.701172 0)"/>
       <use xlink:href="#DejaVuSans-77" transform="translate(370.800781 0)"/>
       <use xlink:href="#DejaVuSans-65" transform="translate(452.587891 0)"/>
       <use xlink:href="#DejaVuSans-65" transform="translate(514.111328 0)"/>
       <use xlink:href="#DejaVuSans-70" transform="translate(575.634766 0)"/>
       <use xlink:href="#DejaVuSans-5f" transform="translate(639.111328 0)"/>
       <use xlink:href="#DejaVuSans-36" transform="translate(689.111328 0)"/>
       <use xlink:href="#DejaVuSans-64" transform="translate(752.734375 0)"/>
       <use xlink:href="#DejaVuSans-69" transform="translate(816.210938 0)"/>
       <use xlink:href="#DejaVuSans-67" transform="translate(843.994141 0)"/>
       <use xlink:href="#DejaVuSans-69" transform="translate(907.470703 0)"/>
       <use xlink:href="#DejaVuSans-74" transform="translate(935.253906 0)"/>
      </g>
     </g>
    </g>
    <g id="xtick_8">
     <g id="line2d_8">
      <g>
       <use xlink:href="#m1ada43783d" x="390.967337" y="217.356585" style="stroke: #000000; stroke-width: 0.8"/>
      </g>
     </g>
     <g id="text_8">
      <!-- torch -->
      <g transform="translate(379.753287 283.978393) rotate(-45) scale(0.1 -0.1)">
       <defs>
        <path id="DejaVuSans-68" d="M 3513 2113 
L 3513 0 
L 2938 0 
L 2938 2094 
Q 2938 2591 2744 2837 
Q 2550 3084 2163 3084 
Q 1697 3084 1428 2787 
Q 1159 2491 1159 1978 
L 1159 0 
L 581 0 
L 581 4863 
L 1159 4863 
L 1159 2956 
Q 1366 3272 1645 3428 
Q 1925 3584 2291 3584 
Q 2894 3584 3203 3211 
Q 3513 2838 3513 2113 
z
" transform="scale(0.015625)"/>
       </defs>
       <use xlink:href="#DejaVuSans-74"/>
       <use xlink:href="#DejaVuSans-6f" transform="translate(39.208984 0)"/>
       <use xlink:href="#DejaVuSans-72" transform="translate(100.390625 0)"/>
       <use xlink:href="#DejaVuSans-63" transform="translate(139.253906 0)"/>
       <use xlink:href="#DejaVuSans-68" transform="translate(194.234375 0)"/>
      </g>
      <!-- colab_answer_only_5digit -->
      <g transform="translate(351.638169 327.929609) rotate(-45) scale(0.1 -0.1)">
       <use xlink:href="#DejaVuSans-63"/>
       <use xlink:href="#DejaVuSans-6f" transform="translate(54.980469 0)"/>
       <use xlink:href="#DejaVuSans-6c" transform="translate(116.162109 0)"/>
       <use xlink:href="#DejaVuSans-61" transform="translate(143.945312 0)"/>
       <use xlink:href="#DejaVuSans-62" transform="translate(205.224609 0)"/>
       <use xlink:href="#DejaVuSans-5f" transform="translate(268.701172 0)"/>
       <use xlink:href="#DejaVuSans-61" transform="translate(318.701172 0)"/>
       <use xlink:href="#DejaVuSans-6e" transform="translate(379.980469 0)"/>
       <use xlink:href="#DejaVuSans-73" transform="translate(443.359375 0)"/>
       <use xlink:href="#DejaVuSans-77" transform="translate(495.458984 0)"/>
       <use xlink:href="#DejaVuSans-65" transform="translate(577.246094 0)"/>
       <use xlink:href="#DejaVuSans-72" transform="translate(638.769531 0)"/>
       <use xlink:href="#DejaVuSans-5f" transform="translate(679.882812 0)"/>
       <use xlink:href="#DejaVuSans-6f" transform="translate(729.882812 0)"/>
       <use xlink:href="#DejaVuSans-6e" transform="translate(791.064453 0)"/>
       <use xlink:href="#DejaVuSans-6c" transform="translate(854.443359 0)"/>
       <use xlink:href="#DejaVuSans-79" transform="translate(882.226562 0)"/>
       <use xlink:href="#DejaVuSans-5f" transform="translate(941.40625 0)"/>
       <use xlink:href="#DejaVuSans-35" transform="translate(991.40625 0)"/>
       <use xlink:href="#DejaVuSans-64" transform="translate(1055.029297 0)"/>
       <use xlink:href="#DejaVuSans-69" transform="translate(1118.505859 0)"/>
       <use xlink:href="#DejaVuSans-67" transform="translate(1146.289062 0)"/>
       <use xlink:href="#DejaVuSans-69" transform="translate(1209.765625 0)"/>
       <use xlink:href="#DejaVuSans-74" transform="translate(1237.548828 0)"/>
      </g>
     </g>
    </g>
    <g id="xtick_9">
     <g id="line2d_9">
      <g>
       <use xlink:href="#m1ada43783d" x="433.395933" y="217.356585" style="stroke: #000000; stroke-width: 0.8"/>
      </g>
     </g>
     <g id="text_9">
      <!-- torch -->
      <g transform="translate(422.181882 283.978393) rotate(-45) scale(0.1 -0.1)">
       <use xlink:href="#DejaVuSans-74"/>
       <use xlink:href="#DejaVuSans-6f" transform="translate(39.208984 0)"/>
       <use xlink:href="#DejaVuSans-72" transform="translate(100.390625 0)"/>
       <use xlink:href="#DejaVuSans-63" transform="translate(139.253906 0)"/>
       <use xlink:href="#DejaVuSans-68" transform="translate(194.234375 0)"/>
      </g>
      <!-- colab_answer_only_6digit -->
      <g transform="translate(394.066764 327.929609) rotate(-45) scale(0.1 -0.1)">
       <use xlink:href="#DejaVuSans-63"/>
       <use xlink:href="#DejaVuSans-6f" transform="translate(54.980469 0)"/>
       <use xlink:href="#DejaVuSans-6c" transform="translate(116.162109 0)"/>
       <use xlink:href="#DejaVuSans-61" transform="translate(143.945312 0)"/>
       <use xlink:href="#DejaVuSans-62" transform="translate(205.224609 0)"/>
       <use xlink:href="#DejaVuSans-5f" transform="translate(268.701172 0)"/>
       <use xlink:href="#DejaVuSans-61" transform="translate(318.701172 0)"/>
       <use xlink:href="#DejaVuSans-6e" transform="translate(379.980469 0)"/>
       <use xlink:href="#DejaVuSans-73" transform="translate(443.359375 0)"/>
       <use xlink:href="#DejaVuSans-77" transform="translate(495.458984 0)"/>
       <use xlink:href="#DejaVuSans-65" transform="translate(577.246094 0)"/>
       <use xlink:href="#DejaVuSans-72" transform="translate(638.769531 0)"/>
       <use xlink:href="#DejaVuSans-5f" transform="translate(679.882812 0)"/>
       <use xlink:href="#DejaVuSans-6f" transform="translate(729.882812 0)"/>
       <use xlink:href="#DejaVuSans-6e" transform="translate(791.064453 0)"/>
       <use xlink:href="#DejaVuSans-6c" transform="translate(854.443359 0)"/>
       <use xlink:href="#DejaVuSans-79" transform="translate(882.226562 0)"/>
       <use xlink:href="#DejaVuSans-5f" transform="translate(941.40625 0)"/>
       <use xlink:href="#DejaVuSans-36" transform="translate(991.40625 0)"/>
       <use xlink:href="#DejaVuSans-64" transform="translate(1055.029297 0)"/>
       <use xlink:href="#DejaVuSans-69" transform="translate(1118.505859 0)"/>
       <use xlink:href="#DejaVuSans-67" transform="translate(1146.289062 0)"/>
       <use xlink:href="#DejaVuSans-69" transform="translate(1209.765625 0)"/>
       <use xlink:href="#DejaVuSans-74" transform="translate(1237.548828 0)"/>
      </g>
     </g>
    </g>
    <g id="xtick_10">
     <g id="line2d_10">
      <g>
       <use xlink:href="#m1ada43783d" x="475.824528" y="217.356585" style="stroke: #000000; stroke-width: 0.8"/>
      </g>
     </g>
     <g id="text_10">
      <!-- torch -->
      <g transform="translate(464.610478 293.376836) rotate(-45) scale(0.1 -0.1)">
       <use xlink:href="#DejaVuSans-74"/>
       <use xlink:href="#DejaVuSans-6f" transform="translate(39.208984 0)"/>
       <use xlink:href="#DejaVuSans-72" transform="translate(100.390625 0)"/>
       <use xlink:href="#DejaVuSans-63" transform="translate(139.253906 0)"/>
       <use xlink:href="#DejaVuSans-68" transform="translate(194.234375 0)"/>
      </g>
      <!-- colab_answer_only_6digit_long -->
      <g transform="translate(427.096916 346.726496) rotate(-45) scale(0.1 -0.1)">
       <use xlink:href="#DejaVuSans-63"/>
       <use xlink:href="#DejaVuSans-6f" transform="translate(54.980469 0)"/>
       <use xlink:href="#DejaVuSans-6c" transform="translate(116.162109 0)"/>
       <use xlink:href="#DejaVuSans-61" transform="translate(143.945312 0)"/>
       <use xlink:href="#DejaVuSans-62" transform="translate(205.224609 0)"/>
       <use xlink:href="#DejaVuSans-5f" transform="translate(268.701172 0)"/>
       <use xlink:href="#DejaVuSans-61" transform="translate(318.701172 0)"/>
       <use xlink:href="#DejaVuSans-6e" transform="translate(379.980469 0)"/>
       <use xlink:href="#DejaVuSans-73" transform="translate(443.359375 0)"/>
       <use xlink:href="#DejaVuSans-77" transform="translate(495.458984 0)"/>
       <use xlink:href="#DejaVuSans-65" transform="translate(577.246094 0)"/>
       <use xlink:href="#DejaVuSans-72" transform="translate(638.769531 0)"/>
       <use xlink:href="#DejaVuSans-5f" transform="translate(679.882812 0)"/>
       <use xlink:href="#DejaVuSans-6f" transform="translate(729.882812 0)"/>
       <use xlink:href="#DejaVuSans-6e" transform="translate(791.064453 0)"/>
       <use xlink:href="#DejaVuSans-6c" transform="translate(854.443359 0)"/>
       <use xlink:href="#DejaVuSans-79" transform="translate(882.226562 0)"/>
       <use xlink:href="#DejaVuSans-5f" transform="translate(941.40625 0)"/>
       <use xlink:href="#DejaVuSans-36" transform="translate(991.40625 0)"/>
       <use xlink:href="#DejaVuSans-64" transform="translate(1055.029297 0)"/>
       <use xlink:href="#DejaVuSans-69" transform="translate(1118.505859 0)"/>
       <use xlink:href="#DejaVuSans-67" transform="translate(1146.289062 0)"/>
       <use xlink:href="#DejaVuSans-69" transform="translate(1209.765625 0)"/>
       <use xlink:href="#DejaVuSans-74" transform="translate(1237.548828 0)"/>
       <use xlink:href="#DejaVuSans-5f" transform="translate(1276.757812 0)"/>
       <use xlink:href="#DejaVuSans-6c" transform="translate(1326.757812 0)"/>
       <use xlink:href="#DejaVuSans-6f" transform="translate(1354.541016 0)"/>
       <use xlink:href="#DejaVuSans-6e" transform="translate(1415.722656 0)"/>
       <use xlink:href="#DejaVuSans-67" transform="translate(1479.101562 0)"/>
      </g>
     </g>
    </g>
    <g id="xtick_11">
     <g id="line2d_11">
      <g>
       <use xlink:href="#m1ada43783d" x="518.253124" y="217.356585" style="stroke: #000000; stroke-width: 0.8"/>
      </g>
     </g>
     <g id="text_11">
      <!-- torch -->
      <g transform="translate(507.039073 292.032229) rotate(-45) scale(0.1 -0.1)">
       <use xlink:href="#DejaVuSans-74"/>
       <use xlink:href="#DejaVuSans-6f" transform="translate(39.208984 0)"/>
       <use xlink:href="#DejaVuSans-72" transform="translate(100.390625 0)"/>
       <use xlink:href="#DejaVuSans-63" transform="translate(139.253906 0)"/>
       <use xlink:href="#DejaVuSans-68" transform="translate(194.234375 0)"/>
      </g>
      <!-- colab_reversed_answer_5digit -->
      <g transform="translate(470.870119 344.037281) rotate(-45) scale(0.1 -0.1)">
       <use xlink:href="#DejaVuSans-63"/>
       <use xlink:href="#DejaVuSans-6f" transform="translate(54.980469 0)"/>
       <use xlink:href="#DejaVuSans-6c" transform="translate(116.162109 0)"/>
       <use xlink:href="#DejaVuSans-61" transform="translate(143.945312 0)"/>
       <use xlink:href="#DejaVuSans-62" transform="translate(205.224609 0)"/>
       <use xlink:href="#DejaVuSans-5f" transform="translate(268.701172 0)"/>
       <use xlink:href="#DejaVuSans-72" transform="translate(318.701172 0)"/>
       <use xlink:href="#DejaVuSans-65" transform="translate(357.564453 0)"/>
       <use xlink:href="#DejaVuSans-76" transform="translate(419.087891 0)"/>
       <use xlink:href="#DejaVuSans-65" transform="translate(478.267578 0)"/>
       <use xlink:href="#DejaVuSans-72" transform="translate(539.791016 0)"/>
       <use xlink:href="#DejaVuSans-73" transform="translate(580.904297 0)"/>
       <use xlink:href="#DejaVuSans-65" transform="translate(633.003906 0)"/>
       <use xlink:href="#DejaVuSans-64" transform="translate(694.527344 0)"/>
       <use xlink:href="#DejaVuSans-5f" transform="translate(758.003906 0)"/>
       <use xlink:href="#DejaVuSans-61" transform="translate(808.003906 0)"/>
       <use xlink:href="#DejaVuSans-6e" transform="translate(869.283203 0)"/>
       <use xlink:href="#DejaVuSans-73" transform="translate(932.662109 0)"/>
       <use xlink:href="#DejaVuSans-77" transform="translate(984.761719 0)"/>
       <use xlink:href="#DejaVuSans-65" transform="translate(1066.548828 0)"/>
       <use xlink:href="#DejaVuSans-72" transform="translate(1128.072266 0)"/>
       <use xlink:href="#DejaVuSans-5f" transform="translate(1169.185547 0)"/>
       <use xlink:href="#DejaVuSans-35" transform="translate(1219.185547 0)"/>
       <use xlink:href="#DejaVuSans-64" transform="translate(1282.808594 0)"/>
       <use xlink:href="#DejaVuSans-69" transform="translate(1346.285156 0)"/>
       <use xlink:href="#DejaVuSans-67" transform="translate(1374.068359 0)"/>
       <use xlink:href="#DejaVuSans-69" transform="translate(1437.544922 0)"/>
       <use xlink:href="#DejaVuSans-74" transform="translate(1465.328125 0)"/>
      </g>
     </g>
    </g>
    <g id="xtick_12">
     <g id="line2d_12">
      <g>
       <use xlink:href="#m1ada43783d" x="560.681719" y="217.356585" style="stroke: #000000; stroke-width: 0.8"/>
      </g>
     </g>
     <g id="text_12">
      <!-- torch -->
      <g transform="translate(549.467669 292.032229) rotate(-45) scale(0.1 -0.1)">
       <use xlink:href="#DejaVuSans-74"/>
       <use xlink:href="#DejaVuSans-6f" transform="translate(39.208984 0)"/>
       <use xlink:href="#DejaVuSans-72" transform="translate(100.390625 0)"/>
       <use xlink:href="#DejaVuSans-63" transform="translate(139.253906 0)"/>
       <use xlink:href="#DejaVuSans-68" transform="translate(194.234375 0)"/>
      </g>
      <!-- colab_reversed_answer_6digit -->
      <g transform="translate(513.298715 344.037281) rotate(-45) scale(0.1 -0.1)">
       <use xlink:href="#DejaVuSans-63"/>
       <use xlink:href="#DejaVuSans-6f" transform="translate(54.980469 0)"/>
       <use xlink:href="#DejaVuSans-6c" transform="translate(116.162109 0)"/>
       <use xlink:href="#DejaVuSans-61" transform="translate(143.945312 0)"/>
       <use xlink:href="#DejaVuSans-62" transform="translate(205.224609 0)"/>
       <use xlink:href="#DejaVuSans-5f" transform="translate(268.701172 0)"/>
       <use xlink:href="#DejaVuSans-72" transform="translate(318.701172 0)"/>
       <use xlink:href="#DejaVuSans-65" transform="translate(357.564453 0)"/>
       <use xlink:href="#DejaVuSans-76" transform="translate(419.087891 0)"/>
       <use xlink:href="#DejaVuSans-65" transform="translate(478.267578 0)"/>
       <use xlink:href="#DejaVuSans-72" transform="translate(539.791016 0)"/>
       <use xlink:href="#DejaVuSans-73" transform="translate(580.904297 0)"/>
       <use xlink:href="#DejaVuSans-65" transform="translate(633.003906 0)"/>
       <use xlink:href="#DejaVuSans-64" transform="translate(694.527344 0)"/>
       <use xlink:href="#DejaVuSans-5f" transform="translate(758.003906 0)"/>
       <use xlink:href="#DejaVuSans-61" transform="translate(808.003906 0)"/>
       <use xlink:href="#DejaVuSans-6e" transform="translate(869.283203 0)"/>
       <use xlink:href="#DejaVuSans-73" transform="translate(932.662109 0)"/>
       <use xlink:href="#DejaVuSans-77" transform="translate(984.761719 0)"/>
       <use xlink:href="#DejaVuSans-65" transform="translate(1066.548828 0)"/>
       <use xlink:href="#DejaVuSans-72" transform="translate(1128.072266 0)"/>
       <use xlink:href="#DejaVuSans-5f" transform="translate(1169.185547 0)"/>
       <use xlink:href="#DejaVuSans-36" transform="translate(1219.185547 0)"/>
       <use xlink:href="#DejaVuSans-64" transform="translate(1282.808594 0)"/>
       <use xlink:href="#DejaVuSans-69" transform="translate(1346.285156 0)"/>
       <use xlink:href="#DejaVuSans-67" transform="translate(1374.068359 0)"/>
       <use xlink:href="#DejaVuSans-69" transform="translate(1437.544922 0)"/>
       <use xlink:href="#DejaVuSans-74" transform="translate(1465.328125 0)"/>
      </g>
     </g>
    </g>
    <g id="xtick_13">
     <g id="line2d_13">
      <g>
       <use xlink:href="#m1ada43783d" x="603.110315" y="217.356585" style="stroke: #000000; stroke-width: 0.8"/>
      </g>
     </g>
     <g id="text_13">
      <!-- torch -->
      <g transform="translate(591.896264 273.291137) rotate(-45) scale(0.1 -0.1)">
       <use xlink:href="#DejaVuSans-74"/>
       <use xlink:href="#DejaVuSans-6f" transform="translate(39.208984 0)"/>
       <use xlink:href="#DejaVuSans-72" transform="translate(100.390625 0)"/>
       <use xlink:href="#DejaVuSans-63" transform="translate(139.253906 0)"/>
       <use xlink:href="#DejaVuSans-68" transform="translate(194.234375 0)"/>
      </g>
      <!-- colab_sweep_5digit -->
      <g transform="translate(574.468402 306.555097) rotate(-45) scale(0.1 -0.1)">
       <use xlink:href="#DejaVuSans-63"/>
       <use xlink:href="#DejaVuSans-6f" transform="translate(54.980469 0)"/>
       <use xlink:href="#DejaVuSans-6c" transform="translate(116.162109 0)"/>
       <use xlink:href="#DejaVuSans-61" transform="translate(143.945312 0)"/>
       <use xlink:href="#DejaVuSans-62" transform="translate(205.224609 0)"/>
       <use xlink:href="#DejaVuSans-5f" transform="translate(268.701172 0)"/>
       <use xlink:href="#DejaVuSans-73" transform="translate(318.701172 0)"/>
       <use xlink:href="#DejaVuSans-77" transform="translate(370.800781 0)"/>
       <use xlink:href="#DejaVuSans-65" transform="translate(452.587891 0)"/>
       <use xlink:href="#DejaVuSans-65" transform="translate(514.111328 0)"/>
       <use xlink:href="#DejaVuSans-70" transform="translate(575.634766 0)"/>
       <use xlink:href="#DejaVuSans-5f" transform="translate(639.111328 0)"/>
       <use xlink:href="#DejaVuSans-35" transform="translate(689.111328 0)"/>
       <use xlink:href="#DejaVuSans-64" transform="translate(752.734375 0)"/>
       <use xlink:href="#DejaVuSans-69" transform="translate(816.210938 0)"/>
       <use xlink:href="#DejaVuSans-67" transform="translate(843.994141 0)"/>
       <use xlink:href="#DejaVuSans-69" transform="translate(907.470703 0)"/>
       <use xlink:href="#DejaVuSans-74" transform="translate(935.253906 0)"/>
      </g>
     </g>
    </g>
    <g id="xtick_14">
     <g id="line2d_14">
      <g>
       <use xlink:href="#m1ada43783d" x="645.53891" y="217.356585" style="stroke: #000000; stroke-width: 0.8"/>
      </g>
     </g>
     <g id="text_14">
      <!-- torch -->
      <g transform="translate(634.32486 273.291137) rotate(-45) scale(0.1 -0.1)">
       <use xlink:href="#DejaVuSans-74"/>
       <use xlink:href="#DejaVuSans-6f" transform="translate(39.208984 0)"/>
       <use xlink:href="#DejaVuSans-72" transform="translate(100.390625 0)"/>
       <use xlink:href="#DejaVuSans-63" transform="translate(139.253906 0)"/>
       <use xlink:href="#DejaVuSans-68" transform="translate(194.234375 0)"/>
      </g>
      <!-- colab_sweep_6digit -->
      <g transform="translate(616.896998 306.555097) rotate(-45) scale(0.1 -0.1)">
       <use xlink:href="#DejaVuSans-63"/>
       <use xlink:href="#DejaVuSans-6f" transform="translate(54.980469 0)"/>
       <use xlink:href="#DejaVuSans-6c" transform="translate(116.162109 0)"/>
       <use xlink:href="#DejaVuSans-61" transform="translate(143.945312 0)"/>
       <use xlink:href="#DejaVuSans-62" transform="translate(205.224609 0)"/>
       <use xlink:href="#DejaVuSans-5f" transform="translate(268.701172 0)"/>
       <use xlink:href="#DejaVuSans-73" transform="translate(318.701172 0)"/>
       <use xlink:href="#DejaVuSans-77" transform="translate(370.800781 0)"/>
       <use xlink:href="#DejaVuSans-65" transform="translate(452.587891 0)"/>
       <use xlink:href="#DejaVuSans-65" transform="translate(514.111328 0)"/>
       <use xlink:href="#DejaVuSans-70" transform="translate(575.634766 0)"/>
       <use xlink:href="#DejaVuSans-5f" transform="translate(639.111328 0)"/>
       <use xlink:href="#DejaVuSans-36" transform="translate(689.111328 0)"/>
       <use xlink:href="#DejaVuSans-64" transform="translate(752.734375 0)"/>
       <use xlink:href="#DejaVuSans-69" transform="translate(816.210938 0)"/>
       <use xlink:href="#DejaVuSans-67" transform="translate(843.994141 0)"/>
       <use xlink:href="#DejaVuSans-69" transform="translate(907.470703 0)"/>
       <use xlink:href="#DejaVuSans-74" transform="translate(935.253906 0)"/>
      </g>
     </g>
    </g>
   </g>
   <g id="matplotlib.axis_2">
    <g id="ytick_1">
     <g id="line2d_15">
      <defs>
       <path id="m659c044197" d="M 0 0 
L -3.5 0 
" style="stroke: #000000; stroke-width: 0.8"/>
      </defs>
      <g>
       <use xlink:href="#m659c044197" x="47.72" y="217.356585" style="stroke: #000000; stroke-width: 0.8"/>
      </g>
     </g>
     <g id="text_15">
      <!-- 0.0 -->
      <g transform="translate(24.816875 221.155804) scale(0.1 -0.1)">
       <defs>
        <path id="DejaVuSans-30" d="M 2034 4250 
Q 1547 4250 1301 3770 
Q 1056 3291 1056 2328 
Q 1056 1369 1301 889 
Q 1547 409 2034 409 
Q 2525 409 2770 889 
Q 3016 1369 3016 2328 
Q 3016 3291 2770 3770 
Q 2525 4250 2034 4250 
z
M 2034 4750 
Q 2819 4750 3233 4129 
Q 3647 3509 3647 2328 
Q 3647 1150 3233 529 
Q 2819 -91 2034 -91 
Q 1250 -91 836 529 
Q 422 1150 422 2328 
Q 422 3509 836 4129 
Q 1250 4750 2034 4750 
z
" transform="scale(0.015625)"/>
        <path id="DejaVuSans-2e" d="M 684 794 
L 1344 794 
L 1344 0 
L 684 0 
L 684 794 
z
" transform="scale(0.015625)"/>
       </defs>
       <use xlink:href="#DejaVuSans-30"/>
       <use xlink:href="#DejaVuSans-2e" transform="translate(63.623047 0)"/>
       <use xlink:href="#DejaVuSans-30" transform="translate(95.410156 0)"/>
      </g>
     </g>
    </g>
    <g id="ytick_2">
     <g id="line2d_16">
      <g>
       <use xlink:href="#m659c044197" x="47.72" y="181.075331" style="stroke: #000000; stroke-width: 0.8"/>
      </g>
     </g>
     <g id="text_16">
      <!-- 0.2 -->
      <g transform="translate(24.816875 184.87455) scale(0.1 -0.1)">
       <defs>
        <path id="DejaVuSans-32" d="M 1228 531 
L 3431 531 
L 3431 0 
L 469 0 
L 469 531 
Q 828 903 1448 1529 
Q 2069 2156 2228 2338 
Q 2531 2678 2651 2914 
Q 2772 3150 2772 3378 
Q 2772 3750 2511 3984 
Q 2250 4219 1831 4219 
Q 1534 4219 1204 4116 
Q 875 4013 500 3803 
L 500 4441 
Q 881 4594 1212 4672 
Q 1544 4750 1819 4750 
Q 2544 4750 2975 4387 
Q 3406 4025 3406 3419 
Q 3406 3131 3298 2873 
Q 3191 2616 2906 2266 
Q 2828 2175 2409 1742 
Q 1991 1309 1228 531 
z
" transform="scale(0.015625)"/>
       </defs>
       <use xlink:href="#DejaVuSans-30"/>
       <use xlink:href="#DejaVuSans-2e" transform="translate(63.623047 0)"/>
       <use xlink:href="#DejaVuSans-32" transform="translate(95.410156 0)"/>
      </g>
     </g>
    </g>
    <g id="ytick_3">
     <g id="line2d_17">
      <g>
       <use xlink:href="#m659c044197" x="47.72" y="144.794077" style="stroke: #000000; stroke-width: 0.8"/>
      </g>
     </g>
     <g id="text_17">
      <!-- 0.4 -->
      <g transform="translate(24.816875 148.593295) scale(0.1 -0.1)">
       <defs>
        <path id="DejaVuSans-34" d="M 2419 4116 
L 825 1625 
L 2419 1625 
L 2419 4116 
z
M 2253 4666 
L 3047 4666 
L 3047 1625 
L 3713 1625 
L 3713 1100 
L 3047 1100 
L 3047 0 
L 2419 0 
L 2419 1100 
L 313 1100 
L 313 1709 
L 2253 4666 
z
" transform="scale(0.015625)"/>
       </defs>
       <use xlink:href="#DejaVuSans-30"/>
       <use xlink:href="#DejaVuSans-2e" transform="translate(63.623047 0)"/>
       <use xlink:href="#DejaVuSans-34" transform="translate(95.410156 0)"/>
      </g>
     </g>
    </g>
    <g id="ytick_4">
     <g id="line2d_18">
      <g>
       <use xlink:href="#m659c044197" x="47.72" y="108.512822" style="stroke: #000000; stroke-width: 0.8"/>
      </g>
     </g>
     <g id="text_18">
      <!-- 0.6 -->
      <g transform="translate(24.816875 112.312041) scale(0.1 -0.1)">
       <use xlink:href="#DejaVuSans-30"/>
       <use xlink:href="#DejaVuSans-2e" transform="translate(63.623047 0)"/>
       <use xlink:href="#DejaVuSans-36" transform="translate(95.410156 0)"/>
      </g>
     </g>
    </g>
    <g id="ytick_5">
     <g id="line2d_19">
      <g>
       <use xlink:href="#m659c044197" x="47.72" y="72.231568" style="stroke: #000000; stroke-width: 0.8"/>
      </g>
     </g>
     <g id="text_19">
      <!-- 0.8 -->
      <g transform="translate(24.816875 76.030787) scale(0.1 -0.1)">
       <defs>
        <path id="DejaVuSans-38" d="M 2034 2216 
Q 1584 2216 1326 1975 
Q 1069 1734 1069 1313 
Q 1069 891 1326 650 
Q 1584 409 2034 409 
Q 2484 409 2743 651 
Q 3003 894 3003 1313 
Q 3003 1734 2745 1975 
Q 2488 2216 2034 2216 
z
M 1403 2484 
Q 997 2584 770 2862 
Q 544 3141 544 3541 
Q 544 4100 942 4425 
Q 1341 4750 2034 4750 
Q 2731 4750 3128 4425 
Q 3525 4100 3525 3541 
Q 3525 3141 3298 2862 
Q 3072 2584 2669 2484 
Q 3125 2378 3379 2068 
Q 3634 1759 3634 1313 
Q 3634 634 3220 271 
Q 2806 -91 2034 -91 
Q 1263 -91 848 271 
Q 434 634 434 1313 
Q 434 1759 690 2068 
Q 947 2378 1403 2484 
z
M 1172 3481 
Q 1172 3119 1398 2916 
Q 1625 2713 2034 2713 
Q 2441 2713 2670 2916 
Q 2900 3119 2900 3481 
Q 2900 3844 2670 4047 
Q 2441 4250 2034 4250 
Q 1625 4250 1398 4047 
Q 1172 3844 1172 3481 
z
" transform="scale(0.015625)"/>
       </defs>
       <use xlink:href="#DejaVuSans-30"/>
       <use xlink:href="#DejaVuSans-2e" transform="translate(63.623047 0)"/>
       <use xlink:href="#DejaVuSans-38" transform="translate(95.410156 0)"/>
      </g>
     </g>
    </g>
    <g id="ytick_6">
     <g id="line2d_20">
      <g>
       <use xlink:href="#m659c044197" x="47.72" y="35.950314" style="stroke: #000000; stroke-width: 0.8"/>
      </g>
     </g>
     <g id="text_20">
      <!-- 1.0 -->
      <g transform="translate(24.816875 39.749532) scale(0.1 -0.1)">
       <defs>
        <path id="DejaVuSans-31" d="M 794 531 
L 1825 531 
L 1825 4091 
L 703 3866 
L 703 4441 
L 1819 4666 
L 2450 4666 
L 2450 531 
L 3481 531 
L 3481 0 
L 794 0 
L 794 531 
z
" transform="scale(0.015625)"/>
       </defs>
       <use xlink:href="#DejaVuSans-31"/>
       <use xlink:href="#DejaVuSans-2e" transform="translate(63.623047 0)"/>
       <use xlink:href="#DejaVuSans-30" transform="translate(95.410156 0)"/>
      </g>
     </g>
    </g>
    <g id="text_21">
     <!-- Generated exact-match accuracy -->
     <g transform="translate(18.737187 205.720636) rotate(-90) scale(0.1 -0.1)">
      <defs>
       <path id="DejaVuSans-47" d="M 3809 666 
L 3809 1919 
L 2778 1919 
L 2778 2438 
L 4434 2438 
L 4434 434 
Q 4069 175 3628 42 
Q 3188 -91 2688 -91 
Q 1594 -91 976 548 
Q 359 1188 359 2328 
Q 359 3472 976 4111 
Q 1594 4750 2688 4750 
Q 3144 4750 3555 4637 
Q 3966 4525 4313 4306 
L 4313 3634 
Q 3963 3931 3569 4081 
Q 3175 4231 2741 4231 
Q 1884 4231 1454 3753 
Q 1025 3275 1025 2328 
Q 1025 1384 1454 906 
Q 1884 428 2741 428 
Q 3075 428 3337 486 
Q 3600 544 3809 666 
z
" transform="scale(0.015625)"/>
       <path id="DejaVuSans-20" transform="scale(0.015625)"/>
       <path id="DejaVuSans-2d" d="M 313 2009 
L 1997 2009 
L 1997 1497 
L 313 1497 
L 313 2009 
z
" transform="scale(0.015625)"/>
       <path id="DejaVuSans-6d" d="M 3328 2828 
Q 3544 3216 3844 3400 
Q 4144 3584 4550 3584 
Q 5097 3584 5394 3201 
Q 5691 2819 5691 2113 
L 5691 0 
L 5113 0 
L 5113 2094 
Q 5113 2597 4934 2840 
Q 4756 3084 4391 3084 
Q 3944 3084 3684 2787 
Q 3425 2491 3425 1978 
L 3425 0 
L 2847 0 
L 2847 2094 
Q 2847 2600 2669 2842 
Q 2491 3084 2119 3084 
Q 1678 3084 1418 2786 
Q 1159 2488 1159 1978 
L 1159 0 
L 581 0 
L 581 3500 
L 1159 3500 
L 1159 2956 
Q 1356 3278 1631 3431 
Q 1906 3584 2284 3584 
Q 2666 3584 2933 3390 
Q 3200 3197 3328 2828 
z
" transform="scale(0.015625)"/>
       <path id="DejaVuSans-75" d="M 544 1381 
L 544 3500 
L 1119 3500 
L 1119 1403 
Q 1119 906 1312 657 
Q 1506 409 1894 409 
Q 2359 409 2629 706 
Q 2900 1003 2900 1516 
L 2900 3500 
L 3475 3500 
L 3475 0 
L 2900 0 
L 2900 538 
Q 2691 219 2414 64 
Q 2138 -91 1772 -91 
Q 1169 -91 856 284 
Q 544 659 544 1381 
z
M 1991 3584 
L 1991 3584 
z
" transform="scale(0.015625)"/>
      </defs>
      <use xlink:href="#DejaVuSans-47"/>
      <use xlink:href="#DejaVuSans-65" transform="translate(77.490234 0)"/>
      <use xlink:href="#DejaVuSans-6e" transform="translate(139.013672 0)"/>
      <use xlink:href="#DejaVuSans-65" transform="translate(202.392578 0)"/>
      <use xlink:href="#DejaVuSans-72" transform="translate(263.916016 0)"/>
      <use xlink:href="#DejaVuSans-61" transform="translate(305.029297 0)"/>
      <use xlink:href="#DejaVuSans-74" transform="translate(366.308594 0)"/>
      <use xlink:href="#DejaVuSans-65" transform="translate(405.517578 0)"/>
      <use xlink:href="#DejaVuSans-64" transform="translate(467.041016 0)"/>
      <use xlink:href="#DejaVuSans-20" transform="translate(530.517578 0)"/>
      <use xlink:href="#DejaVuSans-65" transform="translate(562.304688 0)"/>
      <use xlink:href="#DejaVuSans-78" transform="translate(622.078125 0)"/>
      <use xlink:href="#DejaVuSans-61" transform="translate(681.257812 0)"/>
      <use xlink:href="#DejaVuSans-63" transform="translate(742.537109 0)"/>
      <use xlink:href="#DejaVuSans-74" transform="translate(797.517578 0)"/>
      <use xlink:href="#DejaVuSans-2d" transform="translate(836.726562 0)"/>
      <use xlink:href="#DejaVuSans-6d" transform="translate(872.810547 0)"/>
      <use xlink:href="#DejaVuSans-61" transform="translate(970.222656 0)"/>
      <use xlink:href="#DejaVuSans-74" transform="translate(1031.501953 0)"/>
      <use xlink:href="#DejaVuSans-63" transform="translate(1070.710938 0)"/>
      <use xlink:href="#DejaVuSans-68" transform="translate(1125.691406 0)"/>
      <use xlink:href="#DejaVuSans-20" transform="translate(1189.070312 0)"/>
      <use xlink:href="#DejaVuSans-61" transform="translate(1220.857422 0)"/>
      <use xlink:href="#DejaVuSans-63" transform="translate(1282.136719 0)"/>
      <use xlink:href="#DejaVuSans-63" transform="translate(1337.117188 0)"/>
      <use xlink:href="#DejaVuSans-75" transform="translate(1392.097656 0)"/>
      <use xlink:href="#DejaVuSans-72" transform="translate(1455.476562 0)"/>
      <use xlink:href="#DejaVuSans-61" transform="translate(1496.589844 0)"/>
      <use xlink:href="#DejaVuSans-63" transform="translate(1557.869141 0)"/>
      <use xlink:href="#DejaVuSans-79" transform="translate(1612.849609 0)"/>
     </g>
    </g>
   </g>
   <g id="patch_17">
    <path d="M 47.72 217.356585 
L 47.72 26.88 
" style="fill: none; stroke: #000000; stroke-width: 0.8; stroke-linejoin: miter; stroke-linecap: square"/>
   </g>
   <g id="patch_18">
    <path d="M 691.786079 217.356585 
L 691.786079 26.88 
" style="fill: none; stroke: #000000; stroke-width: 0.8; stroke-linejoin: miter; stroke-linecap: square"/>
   </g>
   <g id="patch_19">
    <path d="M 47.72 217.356585 
L 691.786079 217.356585 
" style="fill: none; stroke: #000000; stroke-width: 0.8; stroke-linejoin: miter; stroke-linecap: square"/>
   </g>
   <g id="patch_20">
    <path d="M 47.72 26.88 
L 691.786079 26.88 
" style="fill: none; stroke: #000000; stroke-width: 0.8; stroke-linejoin: miter; stroke-linecap: square"/>
   </g>
   <g id="text_22">
    <!-- CarryBench free-running answer accuracy -->
    <g transform="translate(243.187727 20.88) scale(0.12 -0.12)">
     <defs>
      <path id="DejaVuSans-43" d="M 4122 4306 
L 4122 3641 
Q 3803 3938 3442 4084 
Q 3081 4231 2675 4231 
Q 1875 4231 1450 3742 
Q 1025 3253 1025 2328 
Q 1025 1406 1450 917 
Q 1875 428 2675 428 
Q 3081 428 3442 575 
Q 3803 722 4122 1019 
L 4122 359 
Q 3791 134 3420 21 
Q 3050 -91 2638 -91 
Q 1578 -91 968 557 
Q 359 1206 359 2328 
Q 359 3453 968 4101 
Q 1578 4750 2638 4750 
Q 3056 4750 3426 4639 
Q 3797 4528 4122 4306 
z
" transform="scale(0.015625)"/>
      <path id="DejaVuSans-42" d="M 1259 2228 
L 1259 519 
L 2272 519 
Q 2781 519 3026 730 
Q 3272 941 3272 1375 
Q 3272 1813 3026 2020 
Q 2781 2228 2272 2228 
L 1259 2228 
z
M 1259 4147 
L 1259 2741 
L 2194 2741 
Q 2656 2741 2882 2914 
Q 3109 3088 3109 3444 
Q 3109 3797 2882 3972 
Q 2656 4147 2194 4147 
L 1259 4147 
z
M 628 4666 
L 2241 4666 
Q 2963 4666 3353 4366 
Q 3744 4066 3744 3513 
Q 3744 3084 3544 2831 
Q 3344 2578 2956 2516 
Q 3422 2416 3680 2098 
Q 3938 1781 3938 1306 
Q 3938 681 3513 340 
Q 3088 0 2303 0 
L 628 0 
L 628 4666 
z
" transform="scale(0.015625)"/>
      <path id="DejaVuSans-66" d="M 2375 4863 
L 2375 4384 
L 1825 4384 
Q 1516 4384 1395 4259 
Q 1275 4134 1275 3809 
L 1275 3500 
L 2222 3500 
L 2222 3053 
L 1275 3053 
L 1275 0 
L 697 0 
L 697 3053 
L 147 3053 
L 147 3500 
L 697 3500 
L 697 3744 
Q 697 4328 969 4595 
Q 1241 4863 1831 4863 
L 2375 4863 
z
" transform="scale(0.015625)"/>
     </defs>
     <use xlink:href="#DejaVuSans-43"/>
     <use xlink:href="#DejaVuSans-61" transform="translate(69.824219 0)"/>
     <use xlink:href="#DejaVuSans-72" transform="translate(131.103516 0)"/>
     <use xlink:href="#DejaVuSans-72" transform="translate(170.466797 0)"/>
     <use xlink:href="#DejaVuSans-79" transform="translate(211.580078 0)"/>
     <use xlink:href="#DejaVuSans-42" transform="translate(270.759766 0)"/>
     <use xlink:href="#DejaVuSans-65" transform="translate(339.363281 0)"/>
     <use xlink:href="#DejaVuSans-6e" transform="translate(400.886719 0)"/>
     <use xlink:href="#DejaVuSans-63" transform="translate(464.265625 0)"/>
     <use xlink:href="#DejaVuSans-68" transform="translate(519.246094 0)"/>
     <use xlink:href="#DejaVuSans-20" transform="translate(582.625 0)"/>
     <use xlink:href="#DejaVuSans-66" transform="translate(614.412109 0)"/>
     <use xlink:href="#DejaVuSans-72" transform="translate(649.617188 0)"/>
     <use xlink:href="#DejaVuSans-65" transform="translate(688.480469 0)"/>
     <use xlink:href="#DejaVuSans-65" transform="translate(750.003906 0)"/>
     <use xlink:href="#DejaVuSans-2d" transform="translate(811.527344 0)"/>
     <use xlink:href="#DejaVuSans-72" transform="translate(847.611328 0)"/>
     <use xlink:href="#DejaVuSans-75" transform="translate(888.724609 0)"/>
     <use xlink:href="#DejaVuSans-6e" transform="translate(952.103516 0)"/>
     <use xlink:href="#DejaVuSans-6e" transform="translate(1015.482422 0)"/>
     <use xlink:href="#DejaVuSans-69" transform="translate(1078.861328 0)"/>
     <use xlink:href="#DejaVuSans-6e" transform="translate(1106.644531 0)"/>
     <use xlink:href="#DejaVuSans-67" transform="translate(1170.023438 0)"/>
     <use xlink:href="#DejaVuSans-20" transform="translate(1233.5 0)"/>
     <use xlink:href="#DejaVuSans-61" transform="translate(1265.287109 0)"/>
     <use xlink:href="#DejaVuSans-6e" transform="translate(1326.566406 0)"/>
     <use xlink:href="#DejaVuSans-73" transform="translate(1389.945312 0)"/>
     <use xlink:href="#DejaVuSans-77" transform="translate(1442.044922 0)"/>
     <use xlink:href="#DejaVuSans-65" transform="translate(1523.832031 0)"/>
     <use xlink:href="#DejaVuSans-72" transform="translate(1585.355469 0)"/>
     <use xlink:href="#DejaVuSans-20" transform="translate(1626.46875 0)"/>
     <use xlink:href="#DejaVuSans-61" transform="translate(1658.255859 0)"/>
     <use xlink:href="#DejaVuSans-63" transform="translate(1719.535156 0)"/>
     <use xlink:href="#DejaVuSans-63" transform="translate(1774.515625 0)"/>
     <use xlink:href="#DejaVuSans-75" transform="translate(1829.496094 0)"/>
     <use xlink:href="#DejaVuSans-72" transform="translate(1892.875 0)"/>
     <use xlink:href="#DejaVuSans-61" transform="translate(1933.988281 0)"/>
     <use xlink:href="#DejaVuSans-63" transform="translate(1995.267578 0)"/>
     <use xlink:href="#DejaVuSans-79" transform="translate(2050.248047 0)"/>
    </g>
   </g>
  </g>
 </g>
 <defs>
  <clipPath id="pd435c3c89a">
   <rect x="47.72" y="26.88" width="644.066079" height="190.476585"/>
  </clipPath>
 </defs>
</svg>
